<mxfile host="app.diagrams.net" agent="Mozilla/5.0 (Windows NT 10.0; Win64; x64) AppleWebKit/537.36 (KHTML, like Gecko) Chrome/132.0.0.0 Safari/537.36" version="26.0.9">
  <diagram name="Page-1" id="weBIvmCIgCtlIU9d05gz">
    <mxGraphModel dx="1221" dy="725" grid="1" gridSize="10" guides="1" tooltips="1" connect="1" arrows="1" fold="1" page="1" pageScale="1" pageWidth="827" pageHeight="1169" math="0" shadow="0">
      <root>
        <mxCell id="0" />
        <mxCell id="1" parent="0" />
        <mxCell id="E1CJzqrkh8Us0yjcmMkV-1" value="Input" style="whiteSpace=wrap;strokeWidth=2;" vertex="1" parent="1">
          <mxGeometry x="101" y="20" width="97" height="54" as="geometry" />
        </mxCell>
        <mxCell id="E1CJzqrkh8Us0yjcmMkV-2" value="Conv1: 6 filters, 5x5 kernel, padding 2" style="whiteSpace=wrap;strokeWidth=2;" vertex="1" parent="1">
          <mxGeometry x="20" y="124" width="260" height="78" as="geometry" />
        </mxCell>
        <mxCell id="E1CJzqrkh8Us0yjcmMkV-3" value="Sigmoid1" style="whiteSpace=wrap;strokeWidth=2;" vertex="1" parent="1">
          <mxGeometry x="88" y="252" width="124" height="54" as="geometry" />
        </mxCell>
        <mxCell id="E1CJzqrkh8Us0yjcmMkV-4" value="AvgPool: 2x2 kernel, stride 2" style="whiteSpace=wrap;strokeWidth=2;" vertex="1" parent="1">
          <mxGeometry x="20" y="356" width="260" height="78" as="geometry" />
        </mxCell>
        <mxCell id="E1CJzqrkh8Us0yjcmMkV-5" value="Conv2: 16 filters, 5x5 kernel" style="whiteSpace=wrap;strokeWidth=2;" vertex="1" parent="1">
          <mxGeometry x="20" y="484" width="260" height="78" as="geometry" />
        </mxCell>
        <mxCell id="E1CJzqrkh8Us0yjcmMkV-6" value="Sigmoid2" style="whiteSpace=wrap;strokeWidth=2;" vertex="1" parent="1">
          <mxGeometry x="88" y="612" width="124" height="54" as="geometry" />
        </mxCell>
        <mxCell id="E1CJzqrkh8Us0yjcmMkV-31" style="edgeStyle=orthogonalEdgeStyle;rounded=0;orthogonalLoop=1;jettySize=auto;html=1;entryX=0.5;entryY=0;entryDx=0;entryDy=0;" edge="1" parent="1" source="E1CJzqrkh8Us0yjcmMkV-7" target="E1CJzqrkh8Us0yjcmMkV-8">
          <mxGeometry relative="1" as="geometry">
            <mxPoint x="320" y="10" as="targetPoint" />
          </mxGeometry>
        </mxCell>
        <mxCell id="E1CJzqrkh8Us0yjcmMkV-7" value="AvgPool: 2x2 kernel, stride 2" style="whiteSpace=wrap;strokeWidth=2;" vertex="1" parent="1">
          <mxGeometry x="20" y="716" width="260" height="78" as="geometry" />
        </mxCell>
        <mxCell id="E1CJzqrkh8Us0yjcmMkV-8" value="Global Average Pooling: 1x1" style="whiteSpace=wrap;strokeWidth=2;" vertex="1" parent="1">
          <mxGeometry x="400" y="40" width="258" height="54" as="geometry" />
        </mxCell>
        <mxCell id="E1CJzqrkh8Us0yjcmMkV-9" value="Flatten" style="whiteSpace=wrap;strokeWidth=2;" vertex="1" parent="1">
          <mxGeometry x="474" y="160" width="112" height="54" as="geometry" />
        </mxCell>
        <mxCell id="E1CJzqrkh8Us0yjcmMkV-10" value="Fully Connected: 120 neurons" style="whiteSpace=wrap;strokeWidth=2;" vertex="1" parent="1">
          <mxGeometry x="400" y="264" width="260" height="78" as="geometry" />
        </mxCell>
        <mxCell id="E1CJzqrkh8Us0yjcmMkV-11" value="Sigmoid3" style="whiteSpace=wrap;strokeWidth=2;" vertex="1" parent="1">
          <mxGeometry x="468" y="392" width="124" height="54" as="geometry" />
        </mxCell>
        <mxCell id="E1CJzqrkh8Us0yjcmMkV-12" value="Fully Connected: 84 neurons" style="whiteSpace=wrap;strokeWidth=2;" vertex="1" parent="1">
          <mxGeometry x="400" y="496" width="260" height="78" as="geometry" />
        </mxCell>
        <mxCell id="E1CJzqrkh8Us0yjcmMkV-13" value="Sigmoid4" style="whiteSpace=wrap;strokeWidth=2;" vertex="1" parent="1">
          <mxGeometry x="468" y="624" width="124" height="54" as="geometry" />
        </mxCell>
        <mxCell id="E1CJzqrkh8Us0yjcmMkV-30" style="edgeStyle=orthogonalEdgeStyle;rounded=0;orthogonalLoop=1;jettySize=auto;html=1;entryX=1;entryY=0.5;entryDx=0;entryDy=0;" edge="1" parent="1" source="E1CJzqrkh8Us0yjcmMkV-14" target="E1CJzqrkh8Us0yjcmMkV-15">
          <mxGeometry relative="1" as="geometry">
            <mxPoint x="464" y="917" as="targetPoint" />
          </mxGeometry>
        </mxCell>
        <mxCell id="E1CJzqrkh8Us0yjcmMkV-14" value="Fully Connected: 5 neurons" style="whiteSpace=wrap;strokeWidth=2;" vertex="1" parent="1">
          <mxGeometry x="402" y="728" width="256" height="54" as="geometry" />
        </mxCell>
        <mxCell id="E1CJzqrkh8Us0yjcmMkV-15" value="Predicted Classes" style="whiteSpace=wrap;strokeWidth=2;" vertex="1" parent="1">
          <mxGeometry x="230" y="890" width="184" height="54" as="geometry" />
        </mxCell>
        <mxCell id="E1CJzqrkh8Us0yjcmMkV-16" value="" style="curved=1;startArrow=none;endArrow=block;exitX=0.51;exitY=1;entryX=0.5;entryY=0;rounded=0;" edge="1" parent="1" source="E1CJzqrkh8Us0yjcmMkV-1" target="E1CJzqrkh8Us0yjcmMkV-2">
          <mxGeometry relative="1" as="geometry">
            <Array as="points" />
          </mxGeometry>
        </mxCell>
        <mxCell id="E1CJzqrkh8Us0yjcmMkV-17" value="" style="curved=1;startArrow=none;endArrow=block;exitX=0.5;exitY=1;entryX=0.5;entryY=0;rounded=0;" edge="1" parent="1" source="E1CJzqrkh8Us0yjcmMkV-2" target="E1CJzqrkh8Us0yjcmMkV-3">
          <mxGeometry relative="1" as="geometry">
            <Array as="points" />
          </mxGeometry>
        </mxCell>
        <mxCell id="E1CJzqrkh8Us0yjcmMkV-18" value="" style="curved=1;startArrow=none;endArrow=block;exitX=0.5;exitY=1;entryX=0.5;entryY=0;rounded=0;" edge="1" parent="1" source="E1CJzqrkh8Us0yjcmMkV-3" target="E1CJzqrkh8Us0yjcmMkV-4">
          <mxGeometry relative="1" as="geometry">
            <Array as="points" />
          </mxGeometry>
        </mxCell>
        <mxCell id="E1CJzqrkh8Us0yjcmMkV-19" value="" style="curved=1;startArrow=none;endArrow=block;exitX=0.5;exitY=1;entryX=0.5;entryY=0;rounded=0;" edge="1" parent="1" source="E1CJzqrkh8Us0yjcmMkV-4" target="E1CJzqrkh8Us0yjcmMkV-5">
          <mxGeometry relative="1" as="geometry">
            <Array as="points" />
          </mxGeometry>
        </mxCell>
        <mxCell id="E1CJzqrkh8Us0yjcmMkV-20" value="" style="curved=1;startArrow=none;endArrow=block;exitX=0.5;exitY=1;entryX=0.5;entryY=0;rounded=0;" edge="1" parent="1" source="E1CJzqrkh8Us0yjcmMkV-5" target="E1CJzqrkh8Us0yjcmMkV-6">
          <mxGeometry relative="1" as="geometry">
            <Array as="points" />
          </mxGeometry>
        </mxCell>
        <mxCell id="E1CJzqrkh8Us0yjcmMkV-21" value="" style="curved=1;startArrow=none;endArrow=block;exitX=0.5;exitY=1;entryX=0.5;entryY=0;rounded=0;" edge="1" parent="1" source="E1CJzqrkh8Us0yjcmMkV-6" target="E1CJzqrkh8Us0yjcmMkV-7">
          <mxGeometry relative="1" as="geometry">
            <Array as="points" />
          </mxGeometry>
        </mxCell>
        <mxCell id="E1CJzqrkh8Us0yjcmMkV-23" value="" style="curved=1;startArrow=none;endArrow=block;exitX=0.5;exitY=1;entryX=0.5;entryY=0;rounded=0;" edge="1" parent="1" source="E1CJzqrkh8Us0yjcmMkV-8" target="E1CJzqrkh8Us0yjcmMkV-9">
          <mxGeometry relative="1" as="geometry">
            <Array as="points" />
          </mxGeometry>
        </mxCell>
        <mxCell id="E1CJzqrkh8Us0yjcmMkV-24" value="" style="curved=1;startArrow=none;endArrow=block;exitX=0.5;exitY=1;entryX=0.5;entryY=0;rounded=0;" edge="1" parent="1" source="E1CJzqrkh8Us0yjcmMkV-9" target="E1CJzqrkh8Us0yjcmMkV-10">
          <mxGeometry relative="1" as="geometry">
            <Array as="points" />
          </mxGeometry>
        </mxCell>
        <mxCell id="E1CJzqrkh8Us0yjcmMkV-25" value="" style="curved=1;startArrow=none;endArrow=block;exitX=0.5;exitY=1;entryX=0.5;entryY=0;rounded=0;" edge="1" parent="1" source="E1CJzqrkh8Us0yjcmMkV-10" target="E1CJzqrkh8Us0yjcmMkV-11">
          <mxGeometry relative="1" as="geometry">
            <Array as="points" />
          </mxGeometry>
        </mxCell>
        <mxCell id="E1CJzqrkh8Us0yjcmMkV-26" value="" style="curved=1;startArrow=none;endArrow=block;exitX=0.5;exitY=1;entryX=0.5;entryY=0;rounded=0;" edge="1" parent="1" source="E1CJzqrkh8Us0yjcmMkV-11" target="E1CJzqrkh8Us0yjcmMkV-12">
          <mxGeometry relative="1" as="geometry">
            <Array as="points" />
          </mxGeometry>
        </mxCell>
        <mxCell id="E1CJzqrkh8Us0yjcmMkV-27" value="" style="curved=1;startArrow=none;endArrow=block;exitX=0.5;exitY=1;entryX=0.5;entryY=0;rounded=0;" edge="1" parent="1" source="E1CJzqrkh8Us0yjcmMkV-12" target="E1CJzqrkh8Us0yjcmMkV-13">
          <mxGeometry relative="1" as="geometry">
            <Array as="points" />
          </mxGeometry>
        </mxCell>
        <mxCell id="E1CJzqrkh8Us0yjcmMkV-28" value="" style="curved=1;startArrow=none;endArrow=block;exitX=0.5;exitY=1;entryX=0.5;entryY=0;rounded=0;" edge="1" parent="1" source="E1CJzqrkh8Us0yjcmMkV-13" target="E1CJzqrkh8Us0yjcmMkV-14">
          <mxGeometry relative="1" as="geometry">
            <Array as="points" />
          </mxGeometry>
        </mxCell>
      </root>
    </mxGraphModel>
  </diagram>
</mxfile>
